<?xml version="1.0" encoding="utf-8"?>
<!-- Generator: Adobe Illustrator 17.0.0, SVG Export Plug-In . SVG Version: 6.00 Build 0)  -->
<!DOCTYPE svg PUBLIC "-//W3C//DTD SVG 1.1//EN" "http://www.w3.org/Graphics/SVG/1.1/DTD/svg11.dtd">
<svg version="1.1" id="Layer_1" xmlns="http://www.w3.org/2000/svg" xmlns:xlink="http://www.w3.org/1999/xlink" x="0px" y="0px"
	 width="161.999px" height="35.997px" viewBox="0 0 161.999 35.997" enable-background="new 0 0 161.999 35.997"
	 xml:space="preserve">
<style type="text/css">
	.st0{display:none;}
	.st1{display:inline;}
	.st2{fill:#FF3F3D;}
	.st3{fill:url(#SVGID_1_);}
	.st4{fill:url(#SVGID_2_);}
	.st5{fill:url(#SVGID_3_);}
	.st6{fill:url(#SVGID_4_);}
	.st7{fill:url(#SVGID_5_);}
	.st8{fill:url(#SVGID_6_);}
	.st9{fill:url(#SVGID_7_);}
	.st10{fill:url(#SVGID_8_);}
	.st11{fill:url(#SVGID_9_);}
	.st12{fill:url(#SVGID_10_);}
</style>
<g class="st0">
	<g class="st1">
		<path class="st2" d="M32.7,2.5l-2.6-2c0,0,0,0,0,0C29.5,0.2,28.8,0,28.2,0H10C9.9,0,9.8,0.1,9.9,0.1l4.9,6.5c0,0,0,0,0.1,0h7.8
			c0.1,0,0.1,0.1,0.1,0.1L11.4,26.9l-4.5-8c0,0,0-0.1,0-0.1l4.4-7.9c0,0,0-0.1,0-0.1L7.2,5.3c0,0,0,0-0.1,0c0,0-0.1,0-0.1,0L0.5,17
			C0.2,17.6,0,18.2,0,18.9c0,0.7,0.2,1.3,0.5,1.9l7.2,12.8l2.6,2c0,0,0,0,0,0c0.6,0.3,1.2,0.5,1.8,0.5h18.3c0.1,0,0.1-0.1,0.1-0.1
			l-4.9-6.5c0,0,0,0-0.1,0h-7.8c-0.1,0-0.1-0.1-0.1-0.1L28.9,9.1l4.5,8c0,0,0,0.1,0,0.1L29,25.1c0,0,0,0.1,0,0.1l4.2,5.5
			c0,0,0,0,0.1,0c0,0,0.1,0,0.1,0L39.9,19c0.3-0.6,0.5-1.2,0.5-1.9c0-0.7-0.2-1.3-0.5-1.9L32.7,2.5z M8.7,31.7L2,19.8
			c-0.2-0.3-0.3-0.6-0.3-1c0-0.3,0.1-0.7,0.3-1l5.3-9.5l2,2.6l-3.9,6.9c-0.3,0.6-0.3,1.3,0,1.9l5,8.8L8.7,31.7z M38.4,18.1L33,27.6
			l-2-2.6l3.9-6.9c0.3-0.6,0.3-1.3,0-1.9l-5-8.9l1.7-3.1l6.7,11.9c0.2,0.3,0.3,0.6,0.3,1C38.6,17.5,38.5,17.8,38.4,18.1z M65.5,10
			H56c-0.3,0-0.6,0.3-0.6,0.6l-0.4,2v0.1c0,0.2,0.2,0.4,0.4,0.4h6.1c0.1,0,0.1,0,0.1,0.1c0,0.1,0,0.1-0.1,0.2l-8.3,9.6
			c-0.3,0.3-0.5,0.6-0.5,0.9l-0.2,1.2c0,0.1,0,0.1,0,0.2c0,0.5,0.4,1,1,1h9.8c0.3,0,0.6-0.3,0.7-0.6l0.4-2.3v-0.1
			c0-0.2-0.2-0.4-0.4-0.4h-6c-0.1,0-0.2,0-0.2-0.1c0,0,0-0.1,0.1-0.1l7.9-9.2c0.1-0.1,0.2-0.5,0.3-0.7l0.3-1.6c0-0.1,0-0.1,0-0.2
			C66.4,10.4,66,10,65.5,10z M76.1,9.8c-4.3,0-7.1,2-8,7.4l-0.3,1.8c-0.1,0.6-0.1,1.2-0.1,1.7c0,4.3,3,5.8,5.5,5.8
			c2.5,0,3.8-0.1,5.6-0.5c0.5-0.1,0.6-0.3,0.7-0.7l0.3-1.9v-0.1c0-0.3-0.2-0.3-0.4-0.3h-0.1c-1.2,0.1-3.1,0.3-5.2,0.3
			c-2.1,0-2.9-1-2.9-2.6c0-0.4,0.1-0.8,0.1-1.2h9.2c0.4,0,0.6-0.3,0.7-0.7l0.2-1.4c0.1-0.5,0.1-1.1,0.1-1.6
			C81.6,12.3,79.8,9.8,76.1,9.8z M77.8,16.7h-6c0.4-2.1,1.4-3.7,3.7-3.7c1.5,0,2.4,0.9,2.4,2.6C77.9,16,77.9,16.3,77.8,16.7z
			 M93,9.8h-1.5c-4.3,0-5.9,1.5-6.6,5.9l-1.7,10v0.1c0,0.3,0.1,0.5,0.4,0.5h2.6c0.3,0,0.6-0.3,0.6-0.6l1.7-10c0.3-2,0.7-2.7,2.4-2.7
			h1.6c1.4,0,1.7,0.7,1.7,1.6c0,0.3-0.1,0.7-0.1,1.1l-1.7,10v0.1c0,0.3,0.1,0.5,0.4,0.5h2.6c0.3,0,0.6-0.3,0.6-0.6l1.7-9.7
			c0.1-0.4,0.1-0.9,0.1-1.3C98,11.9,96.2,9.8,93,9.8z M108.8,9.8c-4.4,0-7.1,2.2-7.9,7.2l-0.4,2.3c-0.1,0.5-0.1,0.9-0.1,1.4
			c0,3,1.8,5.8,5.6,5.8c4.4,0,7.1-2.4,7.9-7.2l0.4-2.3c0.1-0.5,0.1-1,0.1-1.5C114.4,12.4,112.6,9.8,108.8,9.8z M110.6,16.9l-0.4,2.3
			c-0.5,2.7-1.7,3.9-3.7,3.9c-1.7,0-2.5-0.9-2.5-2.6c0-0.4,0-0.8,0.1-1.3l0.4-2.3c0.5-2.9,2-3.9,3.7-3.9c1.7,0,2.4,0.9,2.4,2.6
			C110.7,16.1,110.7,16.5,110.6,16.9z M131.7,4.3h-2.6c-0.3,0-0.6,0.3-0.6,0.6l-0.9,5.1c-1-0.1-2-0.2-2.6-0.2c-4.5,0-7.1,2-8,7.2
			l-0.4,2.2c-0.1,0.5-0.1,1.1-0.1,1.6c0,3.2,1.7,5.6,5.6,5.6c1.8,0,3.9-0.3,5.8-0.7c0.7-0.2,0.8-0.3,0.9-0.8l3.5-20V4.8
			C132.2,4.5,132,4.3,131.7,4.3z M125.4,23.1c-0.6,0.1-1.7,0.2-2.7,0.2c-1.8,0-2.5-0.7-2.5-2.3c0-0.5,0.1-1.1,0.2-1.8l0.4-2.2
			c0.4-2.8,1.3-4.1,3.7-4.1c0.7,0,1.9,0.1,2.6,0.2L125.4,23.1z M147.7,10h-2.6c-0.3,0-0.6,0.3-0.6,0.6l-2.2,12.6
			c-0.8,0.1-2.1,0.2-2.7,0.2c-1.9,0-2.5-1-2.5-2.5c0-0.5,0.1-1,0.2-1.6l1.5-8.7v0c0,0,0,0,0-0.1c0-0.3-0.2-0.5-0.5-0.5h-2.6
			c-0.3,0-0.6,0.3-0.6,0.6l-1.5,8.7c-0.1,0.6-0.2,1.2-0.2,1.7c0,3.4,2,5.6,5.6,5.6c0.7,0,2.1-0.2,2.8-0.3l-0.1,0.2
			c-0.5,2-0.8,2.6-3.1,2.6c-1.3,0-3.9-0.2-5.1-0.3h0c0,0,0,0-0.1,0c-0.3,0-0.5,0.2-0.6,0.5l-0.3,1.5c0,0,0,0,0,0.1v0.1
			c0,0.3,0.1,0.4,0.4,0.5c1,0.3,2.8,0.7,5.1,0.7c4.3,0,6.6-1.7,7.3-5.8l2.7-15.6v0c0,0,0,0,0-0.1C148.1,10.2,148,10,147.7,10z
			 M161.6,10.4c-1.5-0.4-3.3-0.6-5-0.6c-2.7,0-5.9,0.9-5.9,4.7c0,1.4,0.8,2.7,1.8,3.4l3.4,2.4c0.7,0.5,0.9,0.9,0.9,1.4
			c0,1.4-1,1.6-2.4,1.6c-0.8,0-3.2-0.1-4.5-0.3h-0.1c-0.3,0-0.5,0.2-0.6,0.5l-0.3,1.7c0,0,0,0,0,0.1v0.1c0,0.3,0.1,0.4,0.4,0.5
			c1.7,0.5,4.1,0.6,5.1,0.6c3.3,0,6.2-1.5,6.2-5.1c0-1.3-0.4-2.4-2.1-3.6l-3.3-2.3c-0.6-0.4-0.8-0.8-0.8-1.2c0-1.2,1.3-1.3,2.2-1.3
			c1.6,0,3.7,0.2,4.4,0.3h0.1c0.3,0,0.5-0.2,0.5-0.5L162,11c0,0,0,0,0-0.1v-0.1C162,10.6,161.9,10.5,161.6,10.4z"/>
	</g>
</g>
<g>
	<linearGradient id="SVGID_1_" gradientUnits="userSpaceOnUse" x1="7.708" y1="17.9985" x2="32.6866" y2="17.9985">
		<stop  offset="0" style="stop-color:#F26B28"/>
		<stop  offset="0.5153" style="stop-color:#ED3024"/>
		<stop  offset="1" style="stop-color:#E83D5A"/>
	</linearGradient>
	<path class="st3" d="M32.7,2.8L30,0.9c0,0,0,0,0,0c-0.6-0.3-1.2-0.5-1.8-0.5L10,0.4c-0.1,0-0.1,0.1-0.1,0.1l4.9,6.3c0,0,0,0,0.1,0
		h7.8c0.1,0,0.1,0.1,0.1,0.1L7.9,32.8l-0.2,0.4l2.6,1.9c0,0,0,0,0,0c0.6,0.3,1.2,0.5,1.8,0.5l18.3,0c0.1,0,0.1-0.1,0.1-0.1l-4.9-6.3
		c0,0,0,0-0.1,0h-7.8c-0.1,0-0.1-0.1-0.1-0.1L32.5,3.2L32.7,2.8z"/>
	<linearGradient id="SVGID_2_" gradientUnits="userSpaceOnUse" x1="37.6268" y1="28.8199" x2="28.7002" y2="4.2943">
		<stop  offset="0" style="stop-color:#F26B28"/>
		<stop  offset="0.5153" style="stop-color:#E91C24"/>
		<stop  offset="1" style="stop-color:#811A43"/>
	</linearGradient>
	<path class="st4" d="M39.9,15.3L32.7,2.8l0,0L29,9.3c0,0,0,0.1,0,0.1l4.5,7.7c0,0,0,0.1,0,0.1L29,24.9c0,0,0,0.1,0,0.1l4.2,5.4
		c0,0,0.1,0,0.1,0L39.9,19c0.3-0.6,0.5-1.2,0.5-1.8C40.4,16.5,40.2,15.9,39.9,15.3z"/>
	<linearGradient id="SVGID_3_" gradientUnits="userSpaceOnUse" x1="0.5158" y1="11.1229" x2="14.3362" y2="27.5935">
		<stop  offset="0" style="stop-color:#F26B28"/>
		<stop  offset="0.5153" style="stop-color:#E91C24"/>
		<stop  offset="1" style="stop-color:#7C1842"/>
	</linearGradient>
	<path class="st5" d="M7.7,33.2l3.7-6.4c0,0,0-0.1,0-0.1l-4.5-7.7c0,0,0-0.1,0-0.1l4.4-7.7c0,0,0-0.1,0-0.1L7.2,5.6c0,0-0.1,0-0.1,0
		L0.5,17C0.2,17.6,0,18.2,0,18.9c0,0.6,0.2,1.3,0.5,1.8L7.7,33.2L7.7,33.2z"/>
	<g>
		<g>
			<linearGradient id="SVGID_4_" gradientUnits="userSpaceOnUse" x1="52.5755" y1="17.9985" x2="161.998" y2="17.9985">
				<stop  offset="0" style="stop-color:#FFFFFF"/>
				<stop  offset="0.5153" style="stop-color:#F9E4E3"/>
				<stop  offset="1" style="stop-color:#FFFFFF"/>
			</linearGradient>
			<path class="st6" d="M66.4,11.2l-0.3,1.6c0,0.1-0.1,0.5-0.3,0.6l-7.9,9c-0.1,0.1-0.1,0.1-0.1,0.1c0,0.1,0.1,0.1,0.2,0.1h6
				c0.3,0,0.4,0.1,0.4,0.4c0,0,0,0.1,0,0.1L64,25.3c-0.1,0.3-0.4,0.6-0.7,0.6h-9.8c-0.6,0-1-0.4-1-0.9c0-0.1,0-0.1,0-0.2l0.2-1.2
				c0.1-0.3,0.2-0.6,0.5-0.9l8.3-9.3c0.1-0.1,0.1-0.1,0.1-0.2c0,0-0.1-0.1-0.1-0.1h-6.1c-0.3,0-0.4-0.1-0.4-0.4c0,0,0-0.1,0-0.1
				l0.4-2c0.1-0.3,0.3-0.6,0.6-0.6h9.5c0.6,0,1,0.4,1,1C66.5,11,66.4,11.1,66.4,11.2z"/>
			<linearGradient id="SVGID_5_" gradientUnits="userSpaceOnUse" x1="52.5755" y1="17.9985" x2="161.998" y2="17.9985">
				<stop  offset="0" style="stop-color:#FFFFFF"/>
				<stop  offset="0.5153" style="stop-color:#F9E4E3"/>
				<stop  offset="1" style="stop-color:#FFFFFF"/>
			</linearGradient>
			<path class="st7" d="M81.5,17.2l-0.2,1.3c-0.1,0.4-0.3,0.7-0.7,0.7h-9.2c-0.1,0.4-0.1,0.8-0.1,1.2c0,1.5,0.8,2.5,2.9,2.5
				c2,0,4-0.2,5.2-0.3c0,0,0.1,0,0.1,0c0.2,0,0.4,0.1,0.4,0.3c0,0,0,0.1,0,0.1l-0.3,1.9c-0.1,0.4-0.2,0.6-0.7,0.7
				c-1.9,0.3-3.1,0.5-5.6,0.5c-2.5,0-5.5-1.4-5.5-5.6c0-0.5,0-1.1,0.1-1.7l0.3-1.7c0.9-5.3,3.7-7.2,8-7.2c3.7,0,5.5,2.5,5.5,5.8
				C81.6,16.1,81.6,16.7,81.5,17.2z M75.5,13c-2.2,0-3.3,1.5-3.7,3.6h6c0.1-0.4,0.1-0.7,0.1-1.1C78,13.9,77.1,13,75.5,13z"/>
			<linearGradient id="SVGID_6_" gradientUnits="userSpaceOnUse" x1="52.5755" y1="17.9985" x2="161.998" y2="17.9985">
				<stop  offset="0" style="stop-color:#FFFFFF"/>
				<stop  offset="0.5153" style="stop-color:#F9E4E3"/>
				<stop  offset="1" style="stop-color:#FFFFFF"/>
			</linearGradient>
			<path class="st8" d="M97.9,15.9l-1.7,9.4c-0.1,0.3-0.3,0.6-0.6,0.6h-2.6c-0.3,0-0.4-0.2-0.4-0.5c0,0,0-0.1,0-0.1l1.7-9.7
				c0.1-0.4,0.1-0.7,0.1-1c0-0.9-0.4-1.6-1.7-1.6H91c-1.6,0-2,0.7-2.4,2.6l-1.7,9.7c-0.1,0.3-0.3,0.6-0.6,0.6h-2.6
				c-0.3,0-0.4-0.2-0.4-0.5c0,0,0-0.1,0-0.1l1.7-9.7c0.8-4.3,2.4-5.7,6.6-5.7H93c3.2,0,4.9,2,4.9,4.8C98,15,97.9,15.4,97.9,15.9z"/>
			<linearGradient id="SVGID_7_" gradientUnits="userSpaceOnUse" x1="52.5755" y1="17.9985" x2="161.998" y2="17.9985">
				<stop  offset="0" style="stop-color:#FFFFFF"/>
				<stop  offset="0.5153" style="stop-color:#F9E4E3"/>
				<stop  offset="1" style="stop-color:#FFFFFF"/>
			</linearGradient>
			<path class="st9" d="M114.3,16.8l-0.4,2.3c-0.9,4.6-3.5,7-7.9,7c-3.8,0-5.6-2.7-5.6-5.6c0-0.4,0-0.9,0.1-1.3l0.4-2.3
				c0.9-4.9,3.5-7,7.9-7c3.8,0,5.6,2.6,5.6,5.5C114.4,15.9,114.4,16.4,114.3,16.8z M108.3,13c-1.7,0-3.2,1-3.7,3.8l-0.4,2.3
				c-0.1,0.4-0.1,0.9-0.1,1.2c0,1.7,0.8,2.6,2.5,2.6c2,0,3.2-1.2,3.7-3.8l0.4-2.3c0.1-0.4,0.1-0.9,0.1-1.2
				C110.7,13.9,109.9,13,108.3,13z"/>
			<linearGradient id="SVGID_8_" gradientUnits="userSpaceOnUse" x1="52.5755" y1="17.9985" x2="161.998" y2="17.9985">
				<stop  offset="0" style="stop-color:#FFFFFF"/>
				<stop  offset="0.5153" style="stop-color:#F9E4E3"/>
				<stop  offset="1" style="stop-color:#FFFFFF"/>
			</linearGradient>
			<path class="st10" d="M132.2,5.1l-3.5,19.5c-0.1,0.4-0.2,0.6-0.9,0.8c-1.8,0.4-4,0.7-5.8,0.7c-3.9,0-5.6-2.4-5.6-5.5
				c0-0.5,0.1-1,0.1-1.5l0.4-2.2c0.8-5.1,3.5-7,8-7c0.7,0,1.6,0.1,2.6,0.2l0.9-5c0.1-0.3,0.3-0.6,0.6-0.6h2.6
				C132,4.5,132.2,4.7,132.2,5.1C132.2,5,132.2,5,132.2,5.1z M124.5,12.9c-2.4,0-3.3,1.3-3.7,4l-0.4,2.2c-0.1,0.7-0.2,1.2-0.2,1.7
				c0,1.5,0.6,2.3,2.5,2.3c1,0,2.2-0.1,2.7-0.2l1.7-9.8C126.3,13,125.1,12.9,124.5,12.9z"/>
			<linearGradient id="SVGID_9_" gradientUnits="userSpaceOnUse" x1="52.5755" y1="17.9985" x2="161.998" y2="17.9985">
				<stop  offset="0" style="stop-color:#FFFFFF"/>
				<stop  offset="0.5153" style="stop-color:#F9E4E3"/>
				<stop  offset="1" style="stop-color:#FFFFFF"/>
			</linearGradient>
			<path class="st11" d="M148.2,10.6l-2.7,15.2c-0.7,4-3,5.7-7.3,5.7c-2.4,0-4.2-0.3-5.1-0.7c-0.3-0.1-0.4-0.2-0.4-0.5
				c0,0,0-0.1,0-0.1c0,0,0,0,0-0.1l0.3-1.5c0.1-0.3,0.3-0.5,0.6-0.5c0,0,0,0,0.1,0h0c1.2,0.1,3.8,0.3,5.1,0.3c2.3,0,2.6-0.6,3.1-2.5
				l0.1-0.2c-0.6,0.1-2.1,0.3-2.8,0.3c-3.6,0-5.6-2.1-5.6-5.4c0-0.5,0.1-1.1,0.2-1.6l1.5-8.5c0.1-0.3,0.3-0.6,0.6-0.6h2.6
				c0.3,0,0.5,0.2,0.5,0.5c0,0,0,0,0,0.1v0l-1.5,8.5c-0.1,0.6-0.2,1.1-0.2,1.5c0,1.5,0.6,2.5,2.5,2.5c0.7,0,1.9-0.1,2.7-0.2
				l2.2-12.2c0.1-0.3,0.3-0.6,0.6-0.6h2.6C148,10,148.2,10.3,148.2,10.6C148.2,10.5,148.2,10.5,148.2,10.6L148.2,10.6z"/>
			<linearGradient id="SVGID_10_" gradientUnits="userSpaceOnUse" x1="52.5755" y1="17.9985" x2="161.998" y2="17.9985">
				<stop  offset="0" style="stop-color:#FFFFFF"/>
				<stop  offset="0.5153" style="stop-color:#F9E4E3"/>
				<stop  offset="1" style="stop-color:#FFFFFF"/>
			</linearGradient>
			<path class="st12" d="M162,11.1l-0.3,1.6c-0.1,0.3-0.3,0.5-0.5,0.5c0,0-0.1,0-0.1,0h0c-0.8-0.1-2.8-0.3-4.4-0.3
				c-0.9,0-2.2,0.1-2.2,1.3c0,0.4,0.3,0.8,0.8,1.2l3.3,2.2c1.7,1.2,2.1,2.3,2.1,3.5c0,3.5-2.9,5-6.2,5c-0.9,0-3.3-0.1-5.1-0.6
				c-0.3-0.1-0.4-0.3-0.4-0.5c0,0,0-0.1,0-0.1c0,0,0,0,0-0.1l0.3-1.7c0.1-0.3,0.3-0.4,0.6-0.4c0,0,0.1,0,0.1,0
				c1.3,0.2,3.7,0.3,4.5,0.3c1.4,0,2.4-0.3,2.4-1.6c0-0.4-0.3-0.9-0.9-1.3l-3.4-2.4c-1.1-0.7-1.8-2-1.8-3.3c0-3.7,3.2-4.6,5.9-4.6
				c1.7,0,3.4,0.2,5,0.6c0.3,0.1,0.4,0.3,0.4,0.5C162,11,162,11,162,11.1C162,11,162,11,162,11.1z"/>
		</g>
	</g>
</g>
</svg>
